<?xml version="1.0" encoding="utf-8"?>
<!-- Generator: Adobe Illustrator 23.0.2, SVG Export Plug-In . SVG Version: 6.00 Build 0)  -->
<svg version="1.1" id="Layer_1" xmlns="http://www.w3.org/2000/svg" xmlns:xlink="http://www.w3.org/1999/xlink" x="0px" y="0px"
	 viewBox="0 0 800 800" style="enable-background:new 0 0 800 800;" xml:space="preserve">
<style type="text/css">
	.st0{clip-path:url(#SVGID_2_);}
	.st1{fill:#061433;}
	.st2{fill:none;stroke:#14376C;}
	.st3{fill:#173057;}
</style>
<g>
	<defs>
		<rect id="SVGID_1_" x="1" y="1" width="800" height="800"/>
	</defs>
	<clipPath id="SVGID_2_">
		<use xlink:href="#SVGID_1_"  style="overflow:visible;"/>
	</clipPath>
	<g class="st0">
		<rect x="-2.6" y="-2.9" class="st1" width="807.4" height="807.4"/>
		<g>
			<path class="st2" d="M773.5,228.2l270.5,32.2 M933,885.2L735.2,740.9l-213-77.7l-213-123.1L37.8,601.7l257.4,166.5L125.1,884.7
				L37.8,601.7l-239.2-107l301.8-112L-33.9,228.2l159-150.9L-72.2-66.5"/>
			<path class="st2" d="M-33.9,228.2l270.5,32.3L391,382.6l215,112l-297.2,44.9L99.9,382.1 M370.8,910.5l-75.7-142.3"/>
			<path class="st2" d="M522.2,663.2l58.5,183.7l154.4-106l110-139.3L606,494.7L522.2,663.2l-227.1,105l14.1-228.1L391,382.6
				l150.4-114l232.1-40.4L580.3,39l-209.4,64.1L295.1-39.2L125.1,77.3l111.5,183.2L100.4,382.6l-62.6,219l-110,139.3l197.8,144.3"/>
			<path class="st2" d="M522.2-144.2l59,184.2L735.2-66.5 M606,494.7l-64.6-226.1l-304.8-8.1l134.2-157.4 M907.8,382.6l-366.4-114
				 M391,382.6H100.4"/>
			<path class="st2" d="M-226.6,39.5l351.7,37.8l245.8,25.7l170.6,165.5L580.3,39L933,77.9L773.5,228.2l134.2,154.4L606,494.7
				l129.2,246.3 M295.1-39.2L580.3,39 M580.8,846.9l-285.6-78.7 M37.8-205.7l87.8,283.6 M100.4,382.6l-366.4-114"/>
		</g>
		<g>
			<circle class="st3" cx="773.5" cy="228.2" r="5"/>
			<circle class="st3" cx="541.4" cy="268.6" r="5"/>
			<circle class="st3" cx="606" cy="494.7" r="5"/>
			<circle class="st3" cx="735.2" cy="740.9" r="5"/>
			<circle class="st3" cx="522.2" cy="663.2" r="5"/>
			<circle class="st3" cx="309.3" cy="540.1" r="5"/>
			<circle class="st3" cx="295.1" cy="768.2" r="5"/>
			<circle class="st3" cx="37.8" cy="601.7" r="5"/>
			<circle class="st3" cx="100.4" cy="382.6" r="5"/>
			<circle class="st3" cx="125.6" cy="77.9" r="5"/>
			<circle class="st3" cx="370.8" cy="103.1" r="5"/>
			<circle class="st3" cx="580.8" cy="39.5" r="5"/>
			<circle class="st3" cx="236.6" cy="260.5" r="5"/>
			<circle class="st3" cx="391" cy="382.6" r="5"/>
		</g>
	</g>
</g>
</svg>
